PathFileType        4      (X/Y/Z)      C:\Users\pc\Desktop\IMUTRC\Sujet_04\Sujet_04_velo_80.trc         
DataRate	CameraRate	NumFrames	NumMarkers	Units	OrigDataRate	OrigDataStartFrame	OrigNumFrames
60.0	60.0	4	64	mm	60.0	701	934
Frame#	Time	pHipOrigin			pRightASI			pLeftASI			pRightCSI			pLeftCSI			pRightIschialTub			pLeftIschialTub			pSacrum			pL5SpinalProcess			pL3SpinalProcess			pT12SpinalProcess			pIJ			pT4SpinalProcess			pT8SpinalProcess			pPX			pC7SpinalProcess			pTopOfHead			pRightAuricularis			pLeftAuricularis			pBackOfHead			pRightAcromion			pLeftAcromion			pRightArmLatEpicondyle			pRightArmMedEpicondyle			pLeftArmLatEpicondyle			pLeftArmMedEpicondyle			pRightUlnarStyloid			pRightRadialStyloid			pRightOlecranon			pLeftUlnarStyloid			pLeftRadialStyloid			pLeftOlecranon			pRightTopOfHand			pRightPinky			pRightBallHand			pLeftTopOfHand			pLeftPinky			pLeftBallHand			pRightGreaterTrochanter			pRightKneeLatEpicondyle			pRightKneeMedEpicondyle			pRightPatella			pLeftGreaterTrochanter			pLeftKneeLatEpicondyle			pLeftKneeMedEpicondyle			pLeftPatella			pRightTibialTub			pRightLatMalleolus			pRightMedMalleolus			pLeftTibialTub			pLeftLatMalleolus			pLeftMedMalleolus			pRightHeelFoot			pRightFirstMetatarsal			pRightFifthMetatarsal			pRightPivotFoot			pRightHeelCenter			pRightToe			pLeftHeelFoot			pLeftFirstMetatarsal			pLeftFifthMetatarsal			pLeftPivotFoot			pLeftHeelCenter			pLeftToe			
		X1	Y1	Z1	X2	Y2	Z2	X3	Y3	Z3	X4	Y4	Z4	X5	Y5	Z5	X6	Y6	Z6	X7	Y7	Z7	X8	Y8	Z8	X9	Y9	Z9	X10	Y10	Z10	X11	Y11	Z11	X12	Y12	Z12	X13	Y13	Z13	X14	Y14	Z14	X15	Y15	Z15	X16	Y16	Z16	X17	Y17	Z17	X18	Y18	Z18	X19	Y19	Z19	X20	Y20	Z20	X21	Y21	Z21	X22	Y22	Z22	X23	Y23	Z23	X24	Y24	Z24	X25	Y25	Z25	X26	Y26	Z26	X27	Y27	Z27	X28	Y28	Z28	X29	Y29	Z29	X30	Y30	Z30	X31	Y31	Z31	X32	Y32	Z32	X33	Y33	Z33	X34	Y34	Z34	X35	Y35	Z35	X36	Y36	Z36	X37	Y37	Z37	X38	Y38	Z38	X39	Y39	Z39	X40	Y40	Z40	X41	Y41	Z41	X42	Y42	Z42	X43	Y43	Z43	X44	Y44	Z44	X45	Y45	Z45	X46	Y46	Z46	X47	Y47	Z47	X48	Y48	Z48	X49	Y49	Z49	X50	Y50	Z50	X51	Y51	Z51	X52	Y52	Z52	X53	Y53	Z53	X54	Y54	Z54	X55	Y55	Z55	X56	Y56	Z56	X57	Y57	Z57	X58	Y58	Z58	X59	Y59	Z59	X60	Y60	Z60	X61	Y61	Z61	X62	Y62	Z62	X63	Y63	Z63	X64	Y64	Z64	
701	11.667	4.919907857114186E-14	1249.99598	5.863317863948313E-14	70.1274205540871	1327.4488	165.40342287800704	114.15455844752526	1348.83503	-124.45931383709431	42.74128503801664	1410.21927	140.3193411570605	78.76177646956917	1427.73286	-96.94939333957802	-79.97365256617287	1199.30485	45.148937873752544	-61.96340363645857	1208.03274	-73.4854255443445	-64.98681792849402	1288.20219	-7.039511468359237	-1.167923404307433	1384.3824	9.128969939235859	70.45618504990263	1481.08282	28.934283674058506	139.59155536843724	1566.68552	48.11159211890778	401.8863694681941	1572.06098	102.89661639343774	296.904505503756	1688.1246	88.74758274503638	219.0646364250231	1640.3813	69.17797846002783	298.3874300509634	1502.41125	76.48707278453756	345.83516651791547	1715.8689	101.11084371690032	587.4885550680176	1779.10276	144.69471969319497	495.07788353880915	1730.03005	197.41233291334024	515.0142970332706	1738.87354	61.920142469101535	479.5634388216785	1781.99279	129.0163440966392	313.56345624669916	1654.31125	282.8693653750313	377.0222314091188	1698.58651	-88.4146860336055	324.8209748998292	1337.3327	296.28555367359536	299.5821800683274	1330.85904	234.46474702943746	412.0957026198574	1376.34812	-87.88985058750183	374.094893508597	1371.08826	-32.914660005457904	432.81468652712476	1112.14153	212.23250644316687	480.13449332422533	1136.07098	220.96751465080897	289.3415011876186	1323.40276	263.35463938240764	465.358968104071	1136.41779	10.476495611029776	515.5527728361624	1154.22037	17.78082930269389	369.252917116129	1366.00181	-66.20115897764151	649.3012493493347	1053.41611	302.43708970848076	555.9265375680111	1037.63654	256.4406693631395	495.5768857780869	1085.95785	217.96964872555156	681.6906747794175	1031.79868	-1.654615993172854	577.9372403695745	1038.67695	14.705077251316538	520.1166010486336	1101.44842	27.985639013808168	-1.396054264736435	1245.94994	179.61856863499509	387.07589908815953	1072.02791	270.30522826427375	406.51060658297285	1057.17315	189.7867808953289	414.28410122711523	1107.92209	223.32976157953152	21.857232425378413	1229.47677	-175.73605473457278	228.10431259301248	846.31653	-176.23612711186445	239.05928327774927	844.69811	-92.77173917237579	273.56835009021324	870.53498	-136.4416866139253	426.8876583018755	1013.30249	225.5811971063592	166.72508797929737	694.18532	149.2382331729197	183.08645159061984	702.97101	85.55930142801847	278.35954081333654	797.99522	-137.74565538680966	85.68041482511752	429.16953	-184.47078405402706	89.13130112550616	424.95008	-118.40206767824301	105.08769881393974	629.85324	102.03881768748546	274.27317284475424	570.89662	84.34698979461419	260.69494103487546	566.15697	167.7984131984034	289.93340777614515	560.20351	128.0983090847356	145.35959498731484	617.13711	107.85968638671727	373.9487323534767	528.06637	139.9206784253767	12.566234446555526	361.94742	-148.32211214802192	170.1221613129689	298.82915	-88.42303868073454	175.7287841174077	288.36724	-172.20265257568363	194.79235607415464	284.379	-126.55350980864436	52.42637726442835	347.49727	-143.89117591863624	277.61722950600375	248.65822	-116.59946908340248	
702	11.683	4.919907857114186E-14	1249.99598	5.863317863948313E-14	70.75595986140927	1327.1598	165.2532784836696	113.64305676939668	1349.00843	-124.70919889361362	43.22275783727774	1410.04587	140.44351835211535	78.35462400630837	1427.90626	-96.98501456444	-79.78788051909737	1199.18925	45.37033237825837	-62.22195126480427	1208.14834	-73.34393086608127	-65.0153149083836	1288.25999	-6.7137894977505965	-1.1007414016000636	1384.3246	9.298955169512574	70.52336705261	1481.02502	29.104268904335218	139.73304361882435	1566.56992	48.370132086809036	402.03498196355366	1571.82978	103.07372586868689	297.0760226330106	1687.8934	89.13183057440209	219.24328422712622	1640.2657	69.48080345718581	298.5060136674554	1502.23784	76.53847439832222	346.0066900750462	1715.57989	101.49509920671042	587.6758513536267	1778.75596	145.36755045764994	495.15372811334294	1729.68324	197.9523251434823	515.2530025931087	1738.58454	62.47438318918833	479.7578670127043	1781.64599	129.60773794056595	313.6535352228572	1653.90664	283.2464953873007	377.3494840461369	1698.64432	-87.93474513332234	325.10954374659804	1336.9281	296.2697732846726	299.907902038936	1330.51223	234.49324400932701	412.3700294045574	1376.40592	-87.74276233067573	374.36921386542093	1371.08826	-32.76757940907626	433.36179534179473	1111.91033	212.07523780385702	480.6816097993398	1135.89758	220.81023958362303	289.6672231582272	1322.99815	263.3831363622972	465.787493302249	1136.35999	10.267825357935237	515.9884299397572	1154.22037	17.490722129071173	369.57151484176524	1366.00181	-66.09123150509978	649.9369129016293	1053.24271	302.2055148214912	556.5179314119378	1037.46314	256.2462411721136	496.1682719615692	1085.78445	217.77522696240186	682.1034272491172	1031.74088	-2.1518615209121776	578.3357443493295	1038.61915	14.370692708881506	520.5522581522283	1101.39062	27.69553184018548	-0.6117641287618056	1245.54534	179.5641044558229	389.3467857024542	1073.81973	267.7960947591136	408.5071651799991	1059.36957	187.13057322166316	416.10355677676847	1110.06071	220.82217406166973	21.494357330929915	1229.65017	-175.80882908327465	229.57566789506632	847.47254	-176.64074979451823	240.70063147052429	845.96972	-93.24355028561305	275.00967651339965	871.9222	-136.9720171580435	431.3515963879805	1016.42372	223.79728743319166	184.05984693994606	685.28403	156.4986496841958	199.30254872861107	693.54951	92.47569345960062	277.542165660983	797.64841	-138.7197651611242	68.25005223024817	437.89742	-185.01109068426518	72.0709378700577	433.33117	-118.95103045243147	124.63995220714794	617.59951	110.68303387738828	295.9696058765953	565.40556	92.3992793558099	283.27999932923836	561.30172	176.01050117951593	312.45128406780066	555.98406	136.14041183557134	165.45896485563748	606.6752	116.34662750943417	397.72369492022096	527.54616	147.6624859596615	-6.691256048608778	372.69833	-148.61199574165252	149.3358016269433	304.55141	-89.9954481592638	154.00951413960354	294.2629	-173.89770092241375	173.28735635588384	289.52325	-128.3528997097978	32.74595391708055	357.03437	-144.50524958389758	255.0220661775334	251.20145	-119.06861952317901	
703	11.7	4.919907857114186E-14	1249.99598	5.863317863948313E-14	71.42166638089185	1326.87079	165.1474126907128	113.09441605574875	1349.35523	-125.00336008637686	43.70421654821829	1409.75687	140.56769431460188	77.85891037754693	1428.13746	-96.94633720206663	-79.55783753108567	1199.07365	45.554566098479874	-62.52477502939391	1208.26394	-73.16529715229869	-65.04380546039707	1288.20219	-6.388059866697525	-1.1592672603571312	1384.3246	9.498969278656773	70.5020007455689	1481.02502	29.348568042736126	139.70454663893477	1566.56992	48.69585405741768	402.0650108424212	1571.71418	103.19943373015133	297.0475244205527	1687.8356	89.45756663333128	219.21478724723664	1640.2079	69.80652542779447	298.54316679129533	1502.18004	76.58275176713451	346.01534621899646	1715.52209	101.86509854613135	587.6259816388199	1778.58256	145.93756390621502	495.07382185922427	1729.56764	198.39663715845907	515.3359649847388	1738.52674	62.93293726623381	479.7222381273979	1781.58819	130.0148968317028	313.58789154700384	1653.79104	283.5279476495415	377.39529331392714	1698.87552	-87.52046842508915	325.3024336107698	1336.7547	296.4097296360819	300.05651453429556	1330.33883	234.67035348457617	412.5557950237568	1376.63712	-87.52137548661437	374.5992632813087	1371.26166	-32.58333802841028	433.7989907722436	1111.91033	212.23656812275183	481.08164444550425	1135.89758	220.9272989615816	289.86012068284344	1322.76695	263.52308628583035	466.0760698094622	1136.53339	10.252038541136415	516.276998786526	1154.39378	17.474941740148495	369.7572804609647	1366.23301	-65.86984466103837	650.3298168749453	1053.35831	302.40399703165747	556.9993965507545	1037.52094	256.37042479504464	496.60545973157355	1085.78445	217.93656370917267	682.3548429720461	1031.85648	-2.2119192786472013	578.5871600722583	1038.73476	14.310634951146483	520.8851043678094	1101.56402	27.64259832742283	0.24681816657205502	1244.85173	179.59819378170698	390.4761058601963	1072.14351	264.7357984201429	409.162144443897	1058.09796	183.86466276710934	417.06288527635775	1108.61569	217.829052064962	21.375759626117343	1229.93917	-175.86023192962764	233.6227994923312	850.13137	-176.94311612270369	244.8291858999969	848.68635	-93.53878594094999	278.81250897226363	875.04343	-137.29574979327006	434.38539274288814	1016.19252	221.47798765469193	199.87031585320995	674.12851	163.83085675086517	214.11294832872227	681.58479	99.51525714416414	278.97483717278743	798.97783	-139.62010913298383	52.678348904309786	449.63094	-185.22467103438947	57.00207365042149	444.48669	-119.2847327459018	142.46077077097866	603.32276	119.42193759613507	315.4887742534246	557.48688	100.014921592226	303.7692093729212	553.90324	183.79306484825293	332.7104511234718	549.22139	143.73874178408693	183.71544052306302	593.95906	124.79542405455821	419.1798981536904	524.13593	154.70909854082112	-24.0086286055489	386.62828	-148.56802634506022	130.0894970563363	313.2215	-91.35106649066539	133.8231967810105	303.1064	-175.29453282467176	153.3224258413522	297.55754	-129.9354972312553	14.924211587428658	369.6349	-144.79260216435284	233.81122122414973	256.57691	-121.41665779842481	
704	11.717	4.919907857114186E-14	1249.99598	5.863317863948313E-14	71.88022045793733	1326.58179	165.0644502990827	112.48724305546764	1349.81764	-125.09751483044032	43.97141908794597	1409.46787	140.79621306408012	77.18608604096804	1428.54207	-96.75903325601323	-79.32779454307398	1198.84244	45.738799818701374	-62.70188450464302	1208.32174	-73.01668465693916	-65.15374059338325	1288.14439	-6.069455713185196	-1.3506328859954593	1384.3246	9.810449187196713	70.26636541156273	1481.02502	29.69719464723985	139.38747315183198	1566.62772	49.037362844825104	401.80647087451985	1571.94538	103.34092198053841	296.723334348922	1687.9512	89.88049948551473	218.89058951516148	1640.3235	70.22946470785405	298.28462682339404	1502.35345	76.72424001752162	345.65399536308144	1715.6955	102.2437604573787	587.1618275553355	1778.81376	146.55339305044643	494.57964655731683	1729.74104	198.88675201334993	515.0417961315311	1738.75794	63.48158440775782	479.3537706869549	1781.76159	130.47498280772618	313.22654835153327	1653.96444	283.90660313291266	377.1082563661363	1699.28012	-87.05325820409337	325.2225350170956	1336.9281	296.8540352231825	300.0208933094336	1330.45443	235.07750594783698	412.60159663110255	1377.04172	-87.1070923505051	374.5636343960023	1371.60847	-32.17617913727344	433.99340487494885	1112.14153	212.8279607341102	481.23178883984167	1136.18658	221.55583826890373	289.8173739804407	1322.88255	264.0116833300638	466.16615521349627	1136.93799	10.629176213850286	516.322808054316	1154.79838	17.889218448381655	369.80309615663094	1366.63761	-65.45556029236076	650.5099965760263	1053.76291	303.1582518608885	557.2238471927716	1037.86775	257.0875188399914	496.7927572497508	1086.07345	218.60938038530716	682.3492429656071	1032.20329	-1.6790525260458935	578.6258374346316	1039.13936	14.806348579907933	520.8866426946634	1101.96862	28.09403581994036	1.1125387951988301	1243.81132	179.5508538475072	390.0867231212403	1066.76805	261.21441056307526	408.2169903184446	1053.18491	180.13053654948627	416.7849619089214	1103.35584	214.44049631433123	21.627189437366752	1230.45938	-175.92028845479427	240.4828721526545	854.40861	-177.04039469221038	251.48212786664797	853.0214	-93.61316630443771	285.1626195138806	880.01428	-137.19149001509908	435.79768940140445	1012.14648	218.93477125152376	213.26941024855785	660.66097	171.52646526888742	226.75624956798515	667.01903	106.93960787074992	282.90185325458236	801.92566	-140.42530690702705	39.046757088719446	464.4279	-185.1044060547353	43.99189689718095	458.64784	-119.23318166793291	157.96590022736643	586.96519	128.36851368634726	332.3135775232431	547.08277	107.47688411162422	321.6083445341577	543.84594	191.38481099702096	350.28950922252136	539.79989	151.02052460240407	199.5819131749214	579.16211	133.36334466139917	437.7188163045414	517.89346	161.3363812804096	-39.24440782962992	404.14186	-147.9316793112326	112.57617206983689	324.95503	-92.34992719794899	115.25126130171249	315.12892	-176.38600994916484	134.84616291677503	308.65526	-131.1827187565247	-0.9345222584244937	385.76127	-144.53896463303693	213.85189071605703	264.84239	-123.53212207248365	
